# xmcd
#
# Track frame offsets:
#	187
#	23453
#	48055
#	64547
#	90425
#	125278
#
# Disc length: 2016 seconds
#
# Revision: 2
# Processed by: cddbd v1.5.2PL0 Copyright (c) Steve Scherf et al.
# Submitted via: audiograbber 1.83.01
#
DISCID=3607de06
DTITLE=Kraftwerk - 3-D The Catalogue [CD 4) - The Man-Machine
DYEAR=2017
DGENRE=Electronic
TTITLE0=The Man-Machine [live]
TTITLE1=Spacelab [live]
TTITLE2=The Model [live]
TTITLE3=Neon Lights [live]
TTITLE4=The Robots [live]
TTITLE5=Metropolis [live]
EXTD=
EXTT0=
EXTT1=
EXTT2=
EXTT3=
EXTT4=
EXTT5=
PLAYORDER=
